<svg width="128" height="128" viewBox="0 0 128 128" fill="none" xmlns="http://www.w3.org/2000/svg">
  <defs>
    <linearGradient id="bg" x1="14" y1="10" x2="115" y2="120" gradientUnits="userSpaceOnUse">
      <stop stop-color="#081226"/>
      <stop offset="1" stop-color="#04101D"/>
    </linearGradient>
    <linearGradient id="gold" x1="25" y1="17" x2="100" y2="110" gradientUnits="userSpaceOnUse">
      <stop stop-color="#FFF0A8"/>
      <stop offset="0.4" stop-color="#F5C255"/>
      <stop offset="1" stop-color="#B97A15"/>
    </linearGradient>
    <linearGradient id="blue" x1="41" y1="23" x2="89" y2="73" gradientUnits="userSpaceOnUse">
      <stop stop-color="#14B1FF"/>
      <stop offset="1" stop-color="#114FE1"/>
    </linearGradient>
  </defs>
  <path d="M64 8L108 27V72C108 95 93 115 70 124L64 126L58 124C35 115 20 95 20 72V27L64 8Z" fill="url(#bg)" stroke="url(#gold)" stroke-width="4"/>
  <circle cx="64" cy="44" r="18" fill="url(#blue)" stroke="url(#gold)" stroke-width="2.5"/>
  <path d="M46 44H82" stroke="url(#gold)" stroke-width="2.2" stroke-linecap="round"/>
  <path d="M64 26V62" stroke="url(#gold)" stroke-width="2.2" stroke-linecap="round"/>
  <path d="M48 34L64 27L81 34L64 39L48 34Z" fill="#081121" stroke="url(#gold)" stroke-width="2.2" stroke-linejoin="round"/>
  <path d="M42 58C49 54 57 52 64 52C71 52 79 54 86 58L83 72C77 69 71 68 64 68C57 68 51 69 45 72L42 58Z" fill="#FFF4DE" stroke="url(#gold)" stroke-width="2.2"/>
  <text x="64" y="94" fill="url(#gold)" font-family="Arial, Helvetica, sans-serif" font-size="22" font-weight="900" text-anchor="middle">KB</text>
</svg>
